<?xml version="1.0" encoding="UTF-8" standalone="no" ?>
<!DOCTYPE svg PUBLIC "-//W3C//DTD SVG 1.1//EN" "http://www.w3.org/Graphics/SVG/1.1/DTD/svg11.dtd">
<svg xmlns="http://www.w3.org/2000/svg" xmlns:xlink="http://www.w3.org/1999/xlink" version="1.1" width="80" height="80" viewBox="0 0 400 400" xml:space="preserve">
<desc>Created with Fabric.js 3.6.2</desc>
<defs>
</defs>
<g transform="matrix(3.13 0 0 3.13 200 200)" id="Layer_21"  >
<path style="stroke: none; stroke-width: 1; stroke-dasharray: none; stroke-linecap: butt; stroke-dashoffset: 0; stroke-linejoin: miter; stroke-miterlimit: 4; fill: rgb(109,216,255); fill-rule: nonzero; opacity: 1;"  transform=" translate(-31.96, -31.99)" d="M 39.75 33.21 a 2.89 2.89 0 1 1 -2.89 -2.89 A 2.89 2.89 0 0 1 39.75 33.21 Z M 26.94 30.32 a 2.89 2.89 0 1 0 2.89 2.89 A 2.89 2.89 0 0 0 26.94 30.32 Z M 63.86 32 a 31.73 31.73 0 0 1 -3.37 14.26 A 10.13 10.13 0 0 0 46.18 60.55 A 31.9 31.9 0 1 1 63.86 32 Z M 44 23.05 a 1 1 0 0 0 -0.36 -0.42 a 14.64 14.64 0 0 0 -7.44 -2.41 l -0.06 0.23 c 4.25 1.15 5.91 2.54 6.44 3.11 a 0.06 0.06 0 0 1 -0.08 0.1 C 38.18 21.3 32 21.43 32 21.43 s -6.21 -0.13 -10.55 2.23 c -0.06 0 -0.12 0 -0.07 -0.1 c 0.53 -0.57 2.19 -2 6.44 -3.11 l -0.06 -0.23 a 14.64 14.64 0 0 0 -7.44 2.41 a 1 1 0 0 0 -0.36 0.42 c -0.68 1.49 -4 9.23 -3.68 15.69 c 0 0 2.09 3.87 8.05 4.19 a 0.24 0.24 0 0 0 0.21 -0.09 l 1.33 -1.71 a 0.23 0.23 0 0 0 -0.07 -0.35 c -0.89 -0.47 -3.93 -2.14 -5 -3.76 A 23.57 23.57 0 0 0 32 40.59 A 23.58 23.58 0 0 0 43.21 37 c -1.11 1.62 -4.15 3.29 -5 3.76 a 0.23 0.23 0 0 0 -0.07 0.35 l 1.33 1.71 a 0.24 0.24 0 0 0 0.21 0.09 c 6 -0.32 8 -4.19 8 -4.19 C 48.05 32.28 44.69 24.54 44 23.05 Z M 60.13 53.86 a 6.34 6.34 0 1 1 -6.34 -6.34 A 6.34 6.34 0 0 1 60.13 53.86 Z m -3.51 -2.29 a 1 1 0 0 0 -1.39 0.26 L 53.3 54.66 l -1.08 -1 a 1 1 0 0 0 -1.42 0 a 1 1 0 0 0 0 1.41 l 1.93 1.88 a 1 1 0 0 0 0.7 0.28 h 0.1 a 1 1 0 0 0 0.73 -0.43 L 56.89 53 A 1 1 0 0 0 56.62 51.57 Z" stroke-linecap="round" />
</g>
</svg>