<?xml version="1.0" encoding="UTF-8" standalone="no" ?>
<!DOCTYPE svg PUBLIC "-//W3C//DTD SVG 1.1//EN" "http://www.w3.org/Graphics/SVG/1.1/DTD/svg11.dtd">
<svg xmlns="http://www.w3.org/2000/svg" xmlns:xlink="http://www.w3.org/1999/xlink" version="1.1" width="80" height="80" viewBox="0 0 400 400" xml:space="preserve">
<desc>Created with Fabric.js 3.6.2</desc>
<defs>
</defs>
<g transform="matrix(3.33 0 0 3.33 200 200)" id="github"  >
<path style="stroke: none; stroke-width: 1; stroke-dasharray: none; stroke-linecap: butt; stroke-dashoffset: 0; stroke-linejoin: miter; stroke-miterlimit: 4; fill: rgb(109,216,255); fill-rule: evenodd; opacity: 1;"  transform=" translate(-30, -30)" d="M 30 60 C 46.5685433 60 60 46.5685433 60 30 C 60 13.4314567 46.5685433 0 30 0 C 13.4314567 0 0 13.4314567 0 30 C 0 46.5685433 13.4314567 60 30 60 Z" stroke-linecap="round" />
</g>
<g transform="matrix(3.33 0 0 3.33 200 200)" id="github"  >
<path style="stroke: none; stroke-width: 1; stroke-dasharray: none; stroke-linecap: butt; stroke-dashoffset: 0; stroke-linejoin: miter; stroke-miterlimit: 4; fill: rgb(255,255,255); fill-rule: evenodd; opacity: 1;"  transform=" translate(-30, -30)" d="M 25.4252739 47.5168887 C 25.4252739 47.0671729 25.4094072 45.8772272 25.4003405 44.2968305 C 20.2651779 45.440294 19.1817051 41.7588994 19.1817051 41.7588994 C 18.3419003 39.5719093 17.1314934 38.9897191 17.1314934 38.9897191 C 15.4552838 37.8148801 17.2584274 37.8392833 17.2584274 37.8392833 C 19.111438 37.9729198 20.0861102 39.7903759 20.0861102 39.7903759 C 21.7328529 42.6827342 24.4064015 41.8483777 25.4592741 41.3638002 C 25.6270084 40.1401549 26.1041445 39.3057984 26.6311475 38.8328415 C 22.5318575 38.3552363 18.2217663 36.7306815 18.2217663 29.4771257 C 18.2217663 27.4109894 18.941437 25.7213595 20.1223771 24.3977773 C 19.9331093 23.9190101 19.2984391 21.9946447 20.3037115 19.3881523 C 20.3037115 19.3881523 21.8541203 18.8791716 25.3799404 21.3287864 C 26.8521487 20.9092841 28.4320244 20.6977898 30.0028333 20.6908175 C 31.5702423 20.6977898 33.1489846 20.9092841 34.624593 21.3287864 C 38.1481464 18.8791716 39.6962885 19.3881523 39.6962885 19.3881523 C 40.7038276 21.9934827 40.0702907 23.917848 39.8798896 24.3977773 C 41.0630963 25.7213595 41.7771004 27.4109894 41.7771004 29.4771257 C 41.7771004 36.7492744 37.4602091 38.349426 33.3473191 38.8177347 C 34.0114562 39.4022491 34.6007929 40.5573331 34.6007929 42.3236588 C 34.6007929 44.8546176 34.5769927 46.8963506 34.5769927 47.5168887 C 34.5769927 48.0235453 34.9101946 48.6115458 35.8474666 48.4267788 C 43.176775 45.9190612 48.4615385 38.8281932 48.4615385 30.4683597 C 48.4615385 20.0133386 40.1949581 11.5384615 29.9994333 11.5384615 C 19.8050419 11.5384615 11.5384615 20.0133386 11.5384615 30.4683597 C 11.5395949 38.8305174 16.8288917 45.9260335 24.1650001 48.4291029 C 25.0875387 48.6022493 25.4252739 48.017735 25.4252739 47.5168887 Z" stroke-linecap="round" />
</g>
</svg>