<?xml version="1.0" encoding="UTF-8" standalone="no" ?>
<!DOCTYPE svg PUBLIC "-//W3C//DTD SVG 1.1//EN" "http://www.w3.org/Graphics/SVG/1.1/DTD/svg11.dtd">
<svg xmlns="http://www.w3.org/2000/svg" xmlns:xlink="http://www.w3.org/1999/xlink" version="1.1" width="80" height="80" viewBox="0 0 400 400" xml:space="preserve">
<desc>Created with Fabric.js 3.6.2</desc>
<defs>
</defs>
<g transform="matrix(0.39 0 0 0.39 200 200)" id="Layer_1_1_"  >
<circle style="stroke: none; stroke-width: 1; stroke-dasharray: none; stroke-linecap: butt; stroke-dashoffset: 0; stroke-linejoin: miter; stroke-miterlimit: 4; fill: rgb(109,216,255); fill-rule: nonzero; opacity: 1;"  cx="0" cy="0" r="238.2" />
</g>
<g transform="matrix(0.39 0 0 0.39 215.63 214.26)" id="Layer_2_1_"  >
<path style="stroke: rgb(250,250,250); stroke-width: 10; stroke-dasharray: none; stroke-linecap: butt; stroke-dashoffset: 0; stroke-linejoin: miter; stroke-miterlimit: 10; fill: none; fill-rule: nonzero; opacity: 1;"  transform=" translate(-296, -292.51)" d="M 265.7 237.3 c 3.2 -3.9 5.6 -7.7 8.6 -10.8 c 5.8 -6 12.5 -10.2 20.4 -12.9 c 8.8 -2.9 17.8 -3.4 26.6 -2.4 c 14.5 1.3 27.1 7.1 36.8 18 c 4.6 5.1 8 11.1 10.5 17.5 c 1.9 5 3.4 10.1 4.4 15.4 c 0.7 4.5 1.7 9.1 1.7 13.7 c 0 32.1 0 64.3 0.1 96.4 c 0 1.6 -0.4 2.1 -2.1 2.1 c -14.7 0 -29.4 -0.1 -44.1 0 c -2.1 0 -2.4 -0.7 -2.4 -2.6 c 0 -28.1 0 -56.2 0 -84.3 c 0 -5.1 -0.4 -10.3 -1.8 -15.2 c -2.6 -8.3 -7.7 -14.2 -16 -17.3 c -7.1 -2.6 -14.2 -3 -21.4 -1.2 c -7.9 2.1 -13.5 7.2 -17.5 14.2 c -2.2 3.9 -3 8 -3.5 12.5 c -0.4 3.4 -0.4 6.8 -0.4 10.2 c 0 26.9 0 53.9 0 80.7 c 0 2.3 -0.6 2.8 -2.8 2.8 c -14.2 -0.1 -28.5 -0.1 -42.7 0 c -2.6 0 -2.9 -0.9 -2.9 -3 c 0.1 -49.6 0.1 -99.1 0.1 -148.7 c 0 -5.8 0 -5.8 5.8 -5.8 c 13.4 0 26.7 0 40.1 0 c 1.8 0 2.3 0.6 2.3 2.4 C 265.7 224.9 265.7 230.7 265.7 237.3 z" stroke-linecap="round" />
</g>
<g transform="matrix(0.39 0 0 0.39 163.63 215.64)" id="Layer_2_1_"  >
<path style="stroke: rgb(250,250,250); stroke-width: 10; stroke-dasharray: none; stroke-linecap: butt; stroke-dashoffset: 0; stroke-linejoin: miter; stroke-miterlimit: 10; fill: none; fill-rule: nonzero; opacity: 1;"  transform=" translate(-162.9, -296.05)" d="M 138.5 296.1 c 0 -25.2 0 -50.3 0 -75.5 c 0 -2.1 0.5 -2.8 2.7 -2.8 c 14.5 0.1 28.9 0.1 43.4 0 c 2.2 0 2.7 0.7 2.7 2.8 c 0 50.2 0 100.5 0 150.8 c 0 2.2 -0.5 2.9 -2.8 2.9 c -14.5 -0.1 -28.9 -0.1 -43.4 0 c -2.1 0 -2.6 -0.6 -2.6 -2.7 C 138.6 346.5 138.5 321.3 138.5 296.1 z" stroke-linecap="round" />
</g>
<g transform="matrix(0.39 0 0 0.39 163.32 163.38)" id="Layer_2_1_"  >
<path style="stroke: rgb(250,250,250); stroke-width: 10; stroke-dasharray: none; stroke-linecap: butt; stroke-dashoffset: 0; stroke-linejoin: miter; stroke-miterlimit: 10; fill: none; fill-rule: nonzero; opacity: 1;"  transform=" translate(-162.1, -162.24)" d="M 162.2 137.7 c 15.7 -0.5 24.8 11.1 24.9 24.7 c 0 14 -9.8 24.4 -25.2 24.4 c -14.8 0 -24.7 -10.2 -24.8 -24.7 C 137.2 148.4 147.1 137.2 162.2 137.7 z" stroke-linecap="round" />
</g>
</svg>