<svg width="20" height="33" viewBox="0 0 20 33" fill="none" xmlns="http://www.w3.org/2000/svg">
<path d="M9.75 0.917603C4.3641 0.917603 0 5.26415 0 10.6481C0 19.9574 9.75 32.0981 9.75 32.0981C9.75 32.0981 19.5 19.9555 19.5 10.6481C19.5 5.2661 15.1359 0.917603 9.75 0.917603ZM9.75 16.0321C8.35364 16.0321 7.01446 15.4774 6.02708 14.49C5.0397 13.5026 4.485 12.1634 4.485 10.7671C4.485 9.37069 5.0397 8.03151 6.02708 7.04414C7.01446 6.05676 8.35364 5.50205 9.75 5.50205C11.1464 5.50205 12.4855 6.05676 13.4729 7.04414C14.4603 8.03151 15.015 9.37069 15.015 10.7671C15.015 12.1634 14.4603 13.5026 13.4729 14.49C12.4855 15.4774 11.1464 16.0321 9.75 16.0321Z" fill="#157698"/>
</svg>
