<svg width="29" height="24" viewBox="0 0 29 24" fill="none" xmlns="http://www.w3.org/2000/svg">
<path d="M2.83333 9.16675V20.5001H25.5V9.16675L14.1667 13.4167L2.83333 9.16675ZM2.83333 3.50008V6.33341L14.1667 10.5834L25.5 6.33341V3.50008H2.83333ZM2.83333 0.666748H25.5C26.2514 0.666748 26.9721 0.965259 27.5035 1.49661C28.0348 2.02796 28.3333 2.74863 28.3333 3.50008V20.5001C28.3333 21.2515 28.0348 21.9722 27.5035 22.5035C26.9721 23.0349 26.2514 23.3334 25.5 23.3334H2.83333C2.08189 23.3334 1.36122 23.0349 0.829864 22.5035C0.298511 21.9722 0 21.2515 0 20.5001V3.50008C0 2.74863 0.298511 2.02796 0.829864 1.49661C1.36122 0.965259 2.08189 0.666748 2.83333 0.666748Z" fill="#157698"/>
</svg>
